<svg width="400" height="298" viewBox="0 0 400 298" fill="none" xmlns="http://www.w3.org/2000/svg">
<path d="M397 284H3C1.34315 284 0 285.343 0 287V295C0 296.657 1.34315 298 3 298H397C398.657 298 400 296.657 400 295V287C400 285.343 398.657 284 397 284Z" fill="white"/>
<path d="M377 268H23C21.3431 268 20 269.343 20 271V279C20 280.657 21.3431 282 23 282H377C378.657 282 380 280.657 380 279V271C380 269.343 378.657 268 377 268Z" fill="white"/>
<path d="M357 252H43C41.3431 252 40 253.343 40 255V263C40 264.657 41.3431 266 43 266H357C358.657 266 360 264.657 360 263V255C360 253.343 358.657 252 357 252Z" fill="white"/>
<path d="M337 236H63C61.3431 236 60 237.343 60 239V247C60 248.657 61.3431 250 63 250H337C338.657 250 340 248.657 340 247V239C340 237.343 338.657 236 337 236Z" fill="white"/>
<path fill-rule="evenodd" clip-rule="evenodd" d="M58.7144 78.461C57.8759 78.0538 57.9607 76.9786 57.679 76H83.5641C83.4844 76.7458 83.4442 77.2678 82.8012 78.0135C95.8565 85.4085 85.0333 97.0303 79.8585 92.5558C79.9571 101.356 79.3903 119.441 79.8156 232.609C74.3169 234.062 69.2421 234.794 61.4314 232.688C60.4932 119.644 60.7892 99.241 61.3301 93.0026C53.6285 96.1863 48.4898 83.054 58.7144 78.461Z" fill="white"/>
<path fill-rule="evenodd" clip-rule="evenodd" d="M61.4755 80.5015C59.1395 80.4532 56.8377 81.5967 55.6632 83.7024C54.225 86.2809 54.9812 89.7558 57.7363 91.2011C59.9382 92.3562 62.8958 91.7191 64.0973 89.4228C65.0376 87.6254 64.4866 85.2178 62.5273 84.2695C61.0309 83.5453 59.0357 84.0061 58.2799 85.61C57.7193 86.7996 58.1125 88.3815 59.4606 88.9477C59.9433 89.1505 60.4719 89.1691 60.9623 89.0099C61.4528 88.8508 61.9198 88.4782 62.1303 87.9305C62.2749 87.5544 62.2754 87.1556 62.1354 86.779C61.9954 86.4023 61.6694 86.0325 61.205 85.8911C60.9013 85.7986 60.5978 85.8126 60.2999 85.9358C60.0021 86.0591 59.6922 86.3535 59.6097 86.7466C59.5733 86.9204 59.5924 87.0784 59.6401 87.2366C59.4804 86.9415 59.466 86.5484 59.6198 86.2219C59.9918 85.4326 61.0679 85.1846 61.875 85.5752C63.0261 86.1323 63.3693 87.6349 62.7826 88.7562C61.9891 90.2728 59.9478 90.7131 58.4316 89.9177C56.4567 88.8817 55.8949 86.3066 56.9576 84.4013C58.0498 82.4431 60.5102 81.5482 62.6992 82.1305L63.086 80.7278C62.5569 80.587 62.0146 80.5126 61.4755 80.5015ZM60.0673 86.7068L60.8738 87.2764C60.8234 87.2973 60.8189 87.297 60.7676 87.2814C60.7602 87.2791 60.7362 87.2487 60.7474 87.2789C60.7586 87.309 60.7595 87.3841 60.7474 87.4157C60.7053 87.5251 60.6356 87.5855 60.4996 87.6296C60.3898 87.6652 60.2505 87.6574 60.128 87.6271C60.1205 87.619 60.1067 87.6089 60.1002 87.6022C60.0591 87.5603 60.0402 87.5327 60.0218 87.5052C60.0034 87.4778 60.0015 87.5278 59.9384 87.3311C59.8922 87.1872 59.9075 86.9816 59.9738 86.8436C60.002 86.785 60.0348 86.7449 60.0673 86.7068Z" fill="black"/>
<path fill-rule="evenodd" clip-rule="evenodd" d="M81.1091 80.4409C83.4452 80.3927 85.7469 81.5361 86.9215 83.6419C88.3597 86.2204 87.6034 89.6952 84.8483 91.1405C82.6465 92.2956 79.6888 91.6586 78.4874 89.3622C77.547 87.5649 78.098 85.1572 80.0574 84.2089C81.5537 83.4847 83.5489 83.9455 84.3048 85.5495C84.8653 86.7391 84.4722 88.3209 83.1241 88.8872C82.6414 89.09 82.1128 89.1085 81.6223 88.9494C81.1319 88.7902 80.6648 88.4176 80.4543 87.87C80.3097 87.4938 80.3092 87.0951 80.4493 86.7184C80.5893 86.3418 80.9152 85.972 81.3796 85.8305C81.6834 85.738 81.9869 85.752 82.2847 85.8753C82.5826 85.9985 82.8924 86.293 82.9749 86.6861C83.0114 86.8599 82.9922 87.0179 82.9446 87.1761C83.1042 86.8809 83.1187 86.4878 82.9648 86.1613C82.5929 85.3721 81.5168 85.124 80.7097 85.5147C79.5585 86.0718 79.2154 87.5744 79.802 88.6957C80.5955 90.2123 82.6369 90.6526 84.1531 89.8572C86.128 88.8212 86.6898 86.2461 85.627 84.3407C84.5348 82.3826 82.0745 81.4877 79.8855 82.07L79.4987 80.6672C80.0278 80.5265 80.57 80.452 81.1091 80.4409ZM82.5173 86.6463L81.7108 87.2159C81.7612 87.2367 81.7658 87.2364 81.817 87.2208C81.8244 87.2186 81.8485 87.1882 81.8372 87.2183C81.826 87.2485 81.8251 87.3236 81.8372 87.3551C81.8793 87.4646 81.949 87.5249 82.085 87.569C82.1949 87.6047 82.3342 87.5968 82.4566 87.5665C82.4641 87.5584 82.4779 87.5483 82.4845 87.5417C82.5255 87.4998 82.5444 87.4721 82.5628 87.4447C82.5812 87.4172 82.5832 87.4672 82.6463 87.2706C82.6924 87.1266 82.6772 86.9211 82.6109 86.7831C82.5827 86.7244 82.5498 86.6844 82.5173 86.6463Z" fill="black"/>
<path fill-rule="evenodd" clip-rule="evenodd" d="M62.8232 80.7262C69.4876 82.104 74.9897 81.4888 80.3496 80.4863L80.2118 82.011C71.4381 84.3602 68.4416 84.2181 61.9502 81.861L62.8232 80.7262Z" fill="black"/>
<path fill-rule="evenodd" clip-rule="evenodd" d="M78.8208 90.767C78.3861 90.6213 77.1978 88.8853 77.6764 88.8653C73.4331 88.4327 69.4751 88.4637 64.9246 88.9772C64.9828 89.6428 64.4319 90.2042 63.8892 90.767C69.6751 89.6282 74.144 90.1464 78.8208 90.767Z" fill="black"/>
<path fill-rule="evenodd" clip-rule="evenodd" d="M80.5406 78.2364L60.9956 78.2772C60.5014 78.2765 60.0443 78.3601 59.7989 78.496C59.5535 78.6318 59.5576 78.799 59.8097 78.9336C60.0618 79.0682 60.5229 79.1495 61.017 79.1464L80.562 79.1057C81.0562 79.1063 81.5133 79.0227 81.7587 78.8869C82.0042 78.751 82 78.5839 81.7479 78.4493C81.4958 78.3146 81.0347 78.2333 80.5406 78.2364Z" fill="black"/>
<path fill-rule="evenodd" clip-rule="evenodd" d="M62.8987 93.2931C62.745 93.2955 62.5986 93.3606 62.4917 93.474C62.3848 93.5874 62.3262 93.7397 62.3289 93.8975C62.3289 162.729 62.3289 197.048 62.3289 214.161C62.3289 222.717 62.3289 226.972 62.3289 229.087C62.3289 230.145 62.3289 230.669 62.3289 230.928C62.3289 231.057 62.3289 231.119 62.3289 231.15C62.3289 231.166 62.3289 231.174 62.3289 231.177C62.3289 231.179 62.3289 231.179 62.3289 231.18C62.2852 231.717 63.404 232.209 63.4876 231.18C63.4884 231.17 63.4878 231.16 63.4876 231.15C63.4876 231.119 63.4876 231.057 63.4876 230.928C63.4876 230.669 63.4876 230.145 63.4876 229.087C63.4876 226.972 63.4876 222.717 63.4876 214.161C63.4876 197.048 63.4876 162.729 63.4876 93.8975C63.4903 93.7363 63.4291 93.581 63.3181 93.467C63.207 93.3531 63.0557 93.2903 62.8987 93.2931Z" fill="black"/>
<path fill-rule="evenodd" clip-rule="evenodd" d="M65.5426 92.7364C65.2229 92.7415 64.9677 93.0117 64.9727 93.3399C64.9727 162.709 64.9727 197.297 64.9727 214.544C64.9727 223.167 64.9727 227.453 64.9727 229.585C64.9727 230.651 64.9727 231.179 64.9727 231.439C64.9727 231.562 64.9727 231.62 64.9727 231.653C64.9727 231.655 64.9727 231.664 64.9727 231.665C64.9727 231.681 64.9727 231.686 64.9727 231.69C64.9727 231.692 64.9727 231.693 64.9727 231.693C64.9727 232.422 66.1307 232.432 66.1307 231.693C66.1307 231.684 66.1309 231.675 66.1307 231.665C66.1307 231.634 66.1307 231.57 66.1307 231.439C66.1307 231.179 66.1307 230.651 66.1307 229.585C66.1307 227.453 66.1307 223.167 66.1307 214.544C66.1307 197.297 66.1307 162.709 66.1307 93.3399C66.1331 93.1791 66.0719 93.0241 65.9611 92.9104C65.8503 92.7967 65.6993 92.7339 65.5426 92.7364Z" fill="black"/>
<path fill-rule="evenodd" clip-rule="evenodd" d="M68.0788 92.4024C67.759 92.4075 67.5039 92.6777 67.5089 93.0059C67.5089 162.714 67.5089 197.47 67.5089 214.801C67.5089 223.467 67.5089 227.774 67.5089 229.917C67.5089 230.988 67.5089 231.518 67.5089 231.78C67.5089 231.904 67.5089 231.961 67.5089 231.994C67.5089 231.995 67.5089 232.004 67.5089 232.006C67.5089 232.022 67.5089 232.03 67.5089 232.034C67.5089 232.036 67.5089 232.037 67.5089 232.037C67.5741 232.572 68.7315 232.569 68.6668 232.037C68.6644 232.017 68.6677 231.998 68.6668 231.978C68.6668 231.943 68.6668 231.895 68.6668 231.78C68.6668 231.518 68.6668 230.988 68.6668 229.917C68.6668 227.774 68.6668 223.467 68.6668 214.801C68.6668 197.47 68.6668 162.714 68.6668 93.0059C68.6692 92.8451 68.6081 92.6901 68.4973 92.5764C68.3865 92.4627 68.2355 92.3999 68.0788 92.4024Z" fill="black"/>
<path fill-rule="evenodd" clip-rule="evenodd" d="M73.1246 92.4141C72.8054 92.4193 72.5506 92.6885 72.5547 93.0161C72.5547 162.675 72.5547 197.409 72.5547 214.728C72.5547 223.387 72.5547 227.692 72.5547 229.833C72.5547 230.904 72.5547 231.434 72.5547 231.696C72.5547 231.819 72.5547 231.875 72.5547 231.908C72.5547 231.91 72.5547 231.919 72.5547 231.921C72.5547 231.936 72.5547 231.944 72.5547 231.948C72.5547 231.949 72.5547 231.95 72.5547 231.95C72.5547 232.709 73.7111 232.519 73.7111 231.95C73.7111 231.93 73.712 231.911 73.7111 231.891C73.7111 231.856 73.7111 231.809 73.7111 231.696C73.7111 231.434 73.7111 230.904 73.7111 229.833C73.7111 227.692 73.7111 223.387 73.7111 214.728C73.7111 197.409 73.7111 162.675 73.7111 93.0161C73.7131 92.8558 73.6519 92.7015 73.5415 92.5881C73.4311 92.4748 73.2807 92.412 73.1246 92.4141Z" fill="black"/>
<path fill-rule="evenodd" clip-rule="evenodd" d="M78.0406 93.2931C77.7214 93.2982 77.4666 93.5675 77.4708 93.895C77.4708 162.71 77.4708 197.025 77.4708 214.134C77.4708 222.688 77.4708 226.941 77.4708 229.056C77.4708 230.113 77.4708 230.637 77.4708 230.896C77.4708 231.018 77.4708 231.074 77.4708 231.106C77.4708 231.108 77.4708 231.117 77.4708 231.118C77.4708 231.134 77.4708 231.139 77.4708 231.143C77.4708 231.145 77.4708 231.148 77.4708 231.148C77.6412 231.935 78.7123 231.53 78.6295 231.148C78.6274 231.138 78.6297 231.128 78.6295 231.118C78.6295 231.088 78.6295 231.025 78.6295 230.896C78.6295 230.637 78.6295 230.113 78.6295 229.056C78.6295 226.941 78.6295 222.688 78.6295 214.134C78.6295 197.025 78.6295 162.71 78.6295 93.895C78.6315 93.7343 78.57 93.5796 78.4591 93.4662C78.3481 93.3528 78.1971 93.2903 78.0406 93.2931Z" fill="black"/>
<path fill-rule="evenodd" clip-rule="evenodd" d="M75.5421 92.7364C75.3884 92.7389 75.242 92.804 75.1351 92.9174C75.0282 93.0308 74.9696 93.1831 74.9723 93.3408C74.9723 162.664 74.9723 197.228 74.9723 214.463C74.9723 223.081 74.9723 227.367 74.9723 229.497C74.9723 230.563 74.9723 231.089 74.9723 231.35C74.9723 231.473 74.9723 231.53 74.9723 231.563C74.9723 231.565 74.9723 231.573 74.9723 231.575C74.9723 231.59 74.9723 231.596 74.9723 231.599C74.9722 231.601 74.9721 231.603 74.9723 231.604C74.9961 231.873 75.7889 232.545 76.131 231.604C76.1312 231.594 76.1312 231.385 76.131 231.375C76.131 231.344 76.131 231.48 76.131 231.35C76.131 231.089 76.131 230.563 76.131 229.497C76.131 227.367 76.131 223.081 76.131 214.463C76.131 197.228 76.131 162.664 76.131 93.3408C76.1337 93.1797 76.0725 93.0243 75.9615 92.9104C75.8504 92.7964 75.6991 92.7336 75.5421 92.7364Z" fill="black"/>
<path fill-rule="evenodd" clip-rule="evenodd" d="M70.5279 92.4024C70.2088 92.4076 69.9539 92.6769 69.9581 93.0044C69.9581 162.712 69.9581 197.471 69.9581 214.802C69.9581 223.467 69.9581 227.775 69.9581 229.917C69.9581 230.988 69.9581 231.517 69.9581 231.779C69.9581 231.91 69.9581 231.976 69.9581 232.007C69.9581 232.022 69.9581 232.03 69.9581 232.034C69.9581 232.036 69.9581 232.036 69.9581 232.036C69.9581 232.754 71.1168 232.651 71.1168 232.036C71.1168 232.026 71.117 232.017 71.1168 232.007C71.1168 231.976 71.1168 231.91 71.1168 231.779C71.1168 231.517 71.1168 230.988 71.1168 229.917C71.1168 227.775 71.1168 223.467 71.1168 214.802C71.1168 197.471 71.1168 162.712 71.1168 93.0044C71.1188 92.8437 71.0573 92.689 70.9464 92.5756C70.8354 92.4621 70.6844 92.3997 70.5279 92.4024Z" fill="black"/>
<path fill-rule="evenodd" clip-rule="evenodd" d="M317.714 78.461C316.876 78.0538 316.961 76.9786 316.679 76H342.564C342.484 76.7458 342.444 77.2678 341.801 78.0135C354.857 85.4085 344.033 97.0303 338.858 92.5558C338.957 101.356 338.39 119.441 338.816 232.609C333.317 234.062 328.242 234.794 320.431 232.688C319.493 119.644 319.789 99.241 320.33 93.0026C312.628 96.1863 307.49 83.054 317.714 78.461Z" fill="white"/>
<path fill-rule="evenodd" clip-rule="evenodd" d="M320.476 80.5015C318.139 80.4532 315.838 81.5967 314.663 83.7024C313.225 86.2809 313.981 89.7558 316.736 91.2011C318.938 92.3562 321.896 91.7191 323.097 89.4228C324.038 87.6254 323.487 85.2178 321.527 84.2695C320.031 83.5453 318.036 84.0061 317.28 85.61C316.719 86.7996 317.112 88.3815 318.461 88.9477C318.943 89.1505 319.472 89.1691 319.962 89.0099C320.453 88.8508 320.92 88.4782 321.13 87.9305C321.275 87.5544 321.275 87.1556 321.135 86.779C320.995 86.4023 320.669 86.0325 320.205 85.8911C319.901 85.7986 319.598 85.8126 319.3 85.9358C319.002 86.0591 318.692 86.3535 318.61 86.7466C318.573 86.9204 318.592 87.0784 318.64 87.2366C318.48 86.9415 318.466 86.5484 318.62 86.2219C318.992 85.4326 320.068 85.1846 320.875 85.5752C322.026 86.1323 322.369 87.6349 321.783 88.7562C320.989 90.2728 318.948 90.7131 317.432 89.9177C315.457 88.8817 314.895 86.3066 315.958 84.4013C317.05 82.4431 319.51 81.5482 321.699 82.1305L322.086 80.7278C321.557 80.587 321.015 80.5126 320.476 80.5015ZM319.067 86.7068L319.874 87.2764C319.823 87.2973 319.819 87.297 319.768 87.2814C319.76 87.2791 319.736 87.2487 319.747 87.2789C319.759 87.309 319.76 87.3841 319.747 87.4157C319.705 87.5251 319.636 87.5855 319.5 87.6296C319.39 87.6652 319.25 87.6574 319.128 87.6271C319.121 87.619 319.107 87.6089 319.1 87.6022C319.059 87.5603 319.04 87.5327 319.022 87.5052C319.003 87.4778 319.001 87.5278 318.938 87.3311C318.892 87.1872 318.907 86.9816 318.974 86.8436C319.002 86.785 319.035 86.7449 319.067 86.7068Z" fill="black"/>
<path fill-rule="evenodd" clip-rule="evenodd" d="M340.109 80.4409C342.445 80.3927 344.747 81.5361 345.921 83.6419C347.36 86.2204 346.603 89.6952 343.848 91.1405C341.646 92.2956 338.689 91.6586 337.487 89.3622C336.547 87.5649 337.098 85.1572 339.057 84.2089C340.554 83.4847 342.549 83.9455 343.305 85.5495C343.865 86.7391 343.472 88.3209 342.124 88.8872C341.641 89.09 341.113 89.1085 340.622 88.9494C340.132 88.7902 339.665 88.4176 339.454 87.87C339.31 87.4938 339.309 87.0951 339.449 86.7184C339.589 86.3418 339.915 85.972 340.38 85.8305C340.683 85.738 340.987 85.752 341.285 85.8753C341.583 85.9985 341.892 86.293 341.975 86.6861C342.011 86.8599 341.992 87.0179 341.945 87.1761C342.104 86.8809 342.119 86.4878 341.965 86.1613C341.593 85.3721 340.517 85.124 339.71 85.5147C338.559 86.0718 338.215 87.5744 338.802 88.6957C339.595 90.2123 341.637 90.6526 343.153 89.8572C345.128 88.8212 345.69 86.2461 344.627 84.3407C343.535 82.3826 341.074 81.4877 338.885 82.07L338.499 80.6672C339.028 80.5265 339.57 80.452 340.109 80.4409ZM341.517 86.6463L340.711 87.2159C340.761 87.2367 340.766 87.2364 340.817 87.2208C340.824 87.2186 340.848 87.1882 340.837 87.2183C340.826 87.2485 340.825 87.3236 340.837 87.3551C340.879 87.4646 340.949 87.5249 341.085 87.569C341.195 87.6047 341.334 87.5968 341.457 87.5665C341.464 87.5584 341.478 87.5483 341.484 87.5417C341.526 87.4998 341.544 87.4721 341.563 87.4447C341.581 87.4172 341.583 87.4672 341.646 87.2706C341.692 87.1266 341.677 86.9211 341.611 86.7831C341.583 86.7244 341.55 86.6844 341.517 86.6463Z" fill="black"/>
<path fill-rule="evenodd" clip-rule="evenodd" d="M321.823 80.7262C328.488 82.104 333.99 81.4888 339.35 80.4863L339.212 82.011C330.438 84.3602 327.442 84.2181 320.95 81.861L321.823 80.7262Z" fill="black"/>
<path fill-rule="evenodd" clip-rule="evenodd" d="M337.821 90.767C337.386 90.6213 336.198 88.8853 336.676 88.8653C332.433 88.4327 328.475 88.4637 323.925 88.9772C323.983 89.6428 323.432 90.2042 322.889 90.767C328.675 89.6282 333.144 90.1464 337.821 90.767Z" fill="black"/>
<path fill-rule="evenodd" clip-rule="evenodd" d="M339.541 78.2364L319.996 78.2772C319.501 78.2765 319.044 78.3601 318.799 78.496C318.553 78.6318 318.558 78.799 318.81 78.9336C319.062 79.0682 319.523 79.1495 320.017 79.1464L339.562 79.1057C340.056 79.1063 340.513 79.0227 340.759 78.8869C341.004 78.751 341 78.5839 340.748 78.4493C340.496 78.3146 340.035 78.2333 339.541 78.2364Z" fill="black"/>
<path fill-rule="evenodd" clip-rule="evenodd" d="M321.899 93.2931C321.745 93.2955 321.599 93.3606 321.492 93.474C321.385 93.5874 321.326 93.7397 321.329 93.8975C321.329 162.729 321.329 197.048 321.329 214.161C321.329 222.717 321.329 226.972 321.329 229.087C321.329 230.145 321.329 230.669 321.329 230.928C321.329 231.057 321.329 231.119 321.329 231.15C321.329 231.166 321.329 231.174 321.329 231.177C321.329 231.179 321.329 231.179 321.329 231.18C321.285 231.717 322.404 232.209 322.488 231.18C322.488 231.17 322.488 231.16 322.488 231.15C322.488 231.119 322.488 231.057 322.488 230.928C322.488 230.669 322.488 230.145 322.488 229.087C322.488 226.972 322.488 222.717 322.488 214.161C322.488 197.048 322.488 162.729 322.488 93.8975C322.49 93.7363 322.429 93.581 322.318 93.467C322.207 93.3531 322.056 93.2903 321.899 93.2931Z" fill="black"/>
<path fill-rule="evenodd" clip-rule="evenodd" d="M324.543 92.7364C324.223 92.7415 323.968 93.0117 323.973 93.3399C323.973 162.709 323.973 197.297 323.973 214.544C323.973 223.167 323.973 227.453 323.973 229.585C323.973 230.651 323.973 231.179 323.973 231.439C323.973 231.562 323.973 231.62 323.973 231.653C323.973 231.655 323.973 231.664 323.973 231.665C323.973 231.681 323.973 231.686 323.973 231.69C323.973 231.692 323.973 231.693 323.973 231.693C323.973 232.422 325.131 232.432 325.131 231.693C325.131 231.684 325.131 231.675 325.131 231.665C325.131 231.634 325.131 231.57 325.131 231.439C325.131 231.179 325.131 230.651 325.131 229.585C325.131 227.453 325.131 223.167 325.131 214.544C325.131 197.297 325.131 162.709 325.131 93.3399C325.133 93.1791 325.072 93.0241 324.961 92.9104C324.85 92.7967 324.699 92.7339 324.543 92.7364Z" fill="black"/>
<path fill-rule="evenodd" clip-rule="evenodd" d="M327.079 92.4024C326.759 92.4075 326.504 92.6777 326.509 93.0059C326.509 162.714 326.509 197.47 326.509 214.801C326.509 223.467 326.509 227.774 326.509 229.917C326.509 230.988 326.509 231.518 326.509 231.78C326.509 231.904 326.509 231.961 326.509 231.994C326.509 231.995 326.509 232.004 326.509 232.006C326.509 232.022 326.509 232.03 326.509 232.034C326.509 232.036 326.509 232.037 326.509 232.037C326.574 232.572 327.732 232.569 327.667 232.037C327.664 232.017 327.668 231.998 327.667 231.978C327.667 231.943 327.667 231.895 327.667 231.78C327.667 231.518 327.667 230.988 327.667 229.917C327.667 227.774 327.667 223.467 327.667 214.801C327.667 197.47 327.667 162.714 327.667 93.0059C327.669 92.8451 327.608 92.6901 327.497 92.5764C327.386 92.4627 327.235 92.3999 327.079 92.4024Z" fill="black"/>
<path fill-rule="evenodd" clip-rule="evenodd" d="M332.125 92.4141C331.805 92.4193 331.551 92.6885 331.555 93.0161C331.555 162.675 331.555 197.409 331.555 214.728C331.555 223.387 331.555 227.692 331.555 229.833C331.555 230.904 331.555 231.434 331.555 231.696C331.555 231.819 331.555 231.875 331.555 231.908C331.555 231.91 331.555 231.919 331.555 231.921C331.555 231.936 331.555 231.944 331.555 231.948C331.555 231.949 331.555 231.95 331.555 231.95C331.555 232.709 332.711 232.519 332.711 231.95C332.711 231.93 332.712 231.911 332.711 231.891C332.711 231.856 332.711 231.809 332.711 231.696C332.711 231.434 332.711 230.904 332.711 229.833C332.711 227.692 332.711 223.387 332.711 214.728C332.711 197.409 332.711 162.675 332.711 93.0161C332.713 92.8558 332.652 92.7015 332.542 92.5881C332.431 92.4748 332.281 92.412 332.125 92.4141Z" fill="black"/>
<path fill-rule="evenodd" clip-rule="evenodd" d="M337.041 93.2931C336.721 93.2982 336.467 93.5675 336.471 93.895C336.471 162.71 336.471 197.025 336.471 214.134C336.471 222.688 336.471 226.941 336.471 229.056C336.471 230.113 336.471 230.637 336.471 230.896C336.471 231.018 336.471 231.074 336.471 231.106C336.471 231.108 336.471 231.117 336.471 231.118C336.471 231.134 336.471 231.139 336.471 231.143C336.471 231.145 336.471 231.148 336.471 231.148C336.641 231.935 337.712 231.53 337.629 231.148C337.627 231.138 337.63 231.128 337.629 231.118C337.629 231.088 337.629 231.025 337.629 230.896C337.629 230.637 337.629 230.113 337.629 229.056C337.629 226.941 337.629 222.688 337.629 214.134C337.629 197.025 337.629 162.71 337.629 93.895C337.632 93.7343 337.57 93.5796 337.459 93.4662C337.348 93.3528 337.197 93.2903 337.041 93.2931Z" fill="black"/>
<path fill-rule="evenodd" clip-rule="evenodd" d="M334.542 92.7364C334.388 92.7389 334.242 92.804 334.135 92.9174C334.028 93.0308 333.97 93.1831 333.972 93.3408C333.972 162.664 333.972 197.228 333.972 214.463C333.972 223.081 333.972 227.367 333.972 229.497C333.972 230.563 333.972 231.089 333.972 231.35C333.972 231.473 333.972 231.53 333.972 231.563C333.972 231.565 333.972 231.573 333.972 231.575C333.972 231.59 333.972 231.596 333.972 231.599C333.972 231.601 333.972 231.603 333.972 231.604C333.996 231.873 334.789 232.545 335.131 231.604C335.131 231.594 335.131 231.385 335.131 231.375C335.131 231.344 335.131 231.48 335.131 231.35C335.131 231.089 335.131 230.563 335.131 229.497C335.131 227.367 335.131 223.081 335.131 214.463C335.131 197.228 335.131 162.664 335.131 93.3408C335.134 93.1797 335.072 93.0243 334.961 92.9104C334.85 92.7964 334.699 92.7336 334.542 92.7364Z" fill="black"/>
<path fill-rule="evenodd" clip-rule="evenodd" d="M329.528 92.4024C329.209 92.4076 328.954 92.6769 328.958 93.0044C328.958 162.712 328.958 197.471 328.958 214.802C328.958 223.467 328.958 227.775 328.958 229.917C328.958 230.988 328.958 231.517 328.958 231.779C328.958 231.91 328.958 231.976 328.958 232.007C328.958 232.022 328.958 232.03 328.958 232.034C328.958 232.036 328.958 232.036 328.958 232.036C328.958 232.754 330.117 232.651 330.117 232.036C330.117 232.026 330.117 232.017 330.117 232.007C330.117 231.976 330.117 231.91 330.117 231.779C330.117 231.517 330.117 230.988 330.117 229.917C330.117 227.775 330.117 223.467 330.117 214.802C330.117 197.471 330.117 162.712 330.117 93.0044C330.119 92.8437 330.057 92.689 329.946 92.5756C329.835 92.4621 329.684 92.3997 329.528 92.4024Z" fill="black"/>
<path d="M108.841 153.001V125.8H114.259L120.697 145.06C121.291 146.853 121.724 148.195 121.996 149.086C122.305 148.096 122.788 146.643 123.443 144.726L129.956 125.8H134.799V153.001H131.329V130.234L123.425 153.001H120.178L112.311 129.845V153.001H108.841ZM140.681 153.001V125.8H160.349V129.01H144.28V137.341H159.328V140.532H144.28V149.791H160.979V153.001H140.681ZM165.952 153.001V125.8H175.322C177.438 125.8 179.052 125.93 180.165 126.189C181.724 126.548 183.053 127.198 184.154 128.138C185.589 129.35 186.659 130.902 187.364 132.795C188.082 134.675 188.44 136.827 188.44 139.252C188.44 141.318 188.199 143.148 187.717 144.744C187.234 146.34 186.616 147.663 185.861 148.715C185.107 149.754 184.278 150.577 183.375 151.183C182.484 151.776 181.402 152.228 180.128 152.537C178.866 152.846 177.413 153.001 175.768 153.001H165.952ZM169.552 149.791H175.359C177.153 149.791 178.557 149.624 179.571 149.29C180.598 148.956 181.414 148.486 182.021 147.88C182.874 147.026 183.536 145.882 184.006 144.447C184.488 143 184.729 141.25 184.729 139.196C184.729 136.351 184.259 134.168 183.319 132.647C182.392 131.113 181.26 130.086 179.924 129.566C178.959 129.195 177.407 129.01 175.267 129.01H169.552V149.791ZM200.334 153.001V129.01H191.372V125.8H212.933V129.01H203.934V153.001H200.334ZM216.718 153.001V125.8H236.386V129.01H220.317V137.341H235.365V140.532H220.317V149.791H237.017V153.001H216.718ZM261.397 143.464L264.997 144.373C264.243 147.329 262.882 149.587 260.915 151.146C258.961 152.692 256.567 153.465 253.734 153.465C250.803 153.465 248.415 152.871 246.572 151.684C244.742 150.484 243.344 148.752 242.379 146.488C241.426 144.225 240.95 141.794 240.95 139.196C240.95 136.364 241.488 133.896 242.564 131.793C243.653 129.678 245.193 128.076 247.185 126.987C249.188 125.886 251.39 125.336 253.79 125.336C256.511 125.336 258.8 126.029 260.655 127.414C262.511 128.8 263.803 130.748 264.533 133.259L260.989 134.094C260.358 132.115 259.443 130.674 258.243 129.771C257.043 128.868 255.534 128.416 253.716 128.416C251.625 128.416 249.875 128.917 248.465 129.919C247.067 130.921 246.084 132.269 245.515 133.964C244.946 135.646 244.661 137.384 244.661 139.178C244.661 141.491 244.995 143.513 245.663 145.245C246.343 146.965 247.395 148.251 248.817 149.105C250.24 149.958 251.78 150.385 253.438 150.385C255.454 150.385 257.161 149.803 258.559 148.641C259.956 147.478 260.903 145.752 261.397 143.464ZM269.562 153.001V125.8H273.161V136.97H287.3V125.8H290.899V153.001H287.3V140.18H273.161V153.001H269.562ZM103.312 197.001V169.8H112.682C114.797 169.8 116.411 169.93 117.524 170.189C119.083 170.548 120.413 171.198 121.514 172.138C122.949 173.35 124.019 174.902 124.724 176.795C125.441 178.675 125.8 180.827 125.8 183.252C125.8 185.318 125.559 187.148 125.076 188.744C124.594 190.34 123.975 191.663 123.221 192.715C122.466 193.754 121.637 194.577 120.734 195.183C119.844 195.776 118.761 196.228 117.487 196.537C116.226 196.846 114.772 197.001 113.127 197.001H103.312ZM106.911 193.791H112.719C114.512 193.791 115.916 193.624 116.931 193.29C117.957 192.956 118.774 192.486 119.38 191.88C120.233 191.026 120.895 189.882 121.365 188.447C121.848 187 122.089 185.25 122.089 183.196C122.089 180.351 121.619 178.168 120.679 176.647C119.751 175.113 118.619 174.086 117.283 173.566C116.318 173.195 114.766 173.01 112.626 173.01H106.911V193.791ZM127.785 197.001L138.231 169.8H142.109L153.242 197.001H149.142L145.969 188.763H134.595L131.607 197.001H127.785ZM135.634 185.831H144.855L142.017 178.298C141.151 176.009 140.507 174.129 140.087 172.657C139.741 174.401 139.252 176.133 138.621 177.853L135.634 185.831ZM160.219 197.001V173.01H151.257V169.8H172.817V173.01H163.818V197.001H160.219ZM170.721 197.001L181.167 169.8H185.045L196.178 197.001H192.077L188.904 188.763H177.53L174.543 197.001H170.721ZM178.569 185.831H187.791L184.952 178.298C184.086 176.009 183.443 174.129 183.022 172.657C182.676 174.401 182.188 176.133 181.557 177.853L178.569 185.831ZM198.905 197.001V169.8H209.11C211.188 169.8 212.852 170.078 214.102 170.635C215.363 171.179 216.347 172.026 217.052 173.177C217.769 174.315 218.128 175.508 218.128 176.758C218.128 177.921 217.812 179.015 217.182 180.042C216.551 181.069 215.598 181.897 214.324 182.528C215.969 183.011 217.231 183.833 218.109 184.996C219 186.159 219.445 187.532 219.445 189.115C219.445 190.389 219.173 191.577 218.629 192.678C218.097 193.766 217.435 194.607 216.644 195.201C215.852 195.795 214.856 196.246 213.656 196.556C212.469 196.853 211.009 197.001 209.277 197.001H198.905ZM202.505 181.23H208.387C209.982 181.23 211.127 181.124 211.819 180.914C212.735 180.642 213.421 180.19 213.879 179.56C214.349 178.929 214.584 178.137 214.584 177.185C214.584 176.282 214.368 175.49 213.935 174.81C213.502 174.117 212.883 173.647 212.079 173.399C211.275 173.14 209.896 173.01 207.941 173.01H202.505V181.23ZM202.505 193.791H209.277C210.44 193.791 211.257 193.748 211.727 193.661C212.555 193.513 213.248 193.265 213.805 192.919C214.361 192.573 214.819 192.072 215.178 191.416C215.536 190.748 215.716 189.981 215.716 189.115C215.716 188.101 215.456 187.223 214.937 186.48C214.417 185.726 213.693 185.2 212.766 184.903C211.85 184.594 210.527 184.439 208.795 184.439H202.505V193.791ZM221.412 197.001L231.858 169.8H235.736L246.869 197.001H242.769L239.596 188.763H228.222L225.234 197.001H221.412ZM229.261 185.831H238.482L235.644 178.298C234.778 176.009 234.134 174.129 233.714 172.657C233.368 174.401 232.879 176.133 232.248 177.853L229.261 185.831ZM249.708 197.001V169.8H253.4L267.688 191.156V169.8H271.139V197.001H267.446L253.159 175.626V197.001H249.708ZM277.058 197.001V169.8H280.657V183.289L294.165 169.8H299.045L287.634 180.821L299.546 197.001H294.796L285.11 183.233L280.657 187.575V197.001H277.058Z" fill="white"/>
<path d="M199.542 0.236148C199.829 0.0879503 200.171 0.0879507 200.458 0.236149L341.828 73.1111C342.76 73.5916 342.418 75 341.37 75H58.6299C57.5814 75 57.2397 73.5916 58.1717 73.1111L199.542 0.236148Z" fill="white"/>
<path d="M199.543 9.23337C199.83 9.08627 200.17 9.08628 200.457 9.23337L313.231 67.1093C314.165 67.5885 313.824 68.9991 312.775 68.9991H87.2251C86.1756 68.9991 85.8348 67.5885 86.7685 67.1093L199.543 9.23337Z" fill="#E9E9E9"/>
<path fill-rule="evenodd" clip-rule="evenodd" d="M188.415 48.28C188.415 48.1338 188.513 48.0557 188.637 48.0557C188.847 48.0557 189.164 48.28 189.342 48.7287C189.278 48.7287 189.182 48.7483 189.117 48.7483C188.736 48.7483 188.415 48.5654 188.415 48.28ZM165.315 48.28C165.315 48.1338 165.409 48.0557 165.538 48.0557C165.743 48.0557 166.047 48.28 166.223 48.7287C165.633 48.7287 165.315 48.6003 165.315 48.28ZM169.77 45.9613C169.77 43.5609 170.234 43.1921 170.378 43.1921C170.634 43.1921 170.665 43.3531 170.665 44.2736C170.665 45.2196 170.265 46.4574 169.77 47.137V45.9613ZM185.989 48.328C185.714 48.7139 185.491 49.2621 185.491 49.9683C185.491 51.3209 186.257 52.612 187.744 52.612C189.182 52.612 190.189 51.4671 190.189 49.8706C190.189 49.4071 190.172 49.3432 190.142 49.1508C190.476 49.004 190.764 48.7796 190.989 48.6003C191.18 48.4552 191.322 48.3741 191.436 48.3741C191.58 48.3741 191.643 48.4872 191.643 48.6962V51.8549C191.643 52.3693 191.804 52.612 192.202 52.612C192.568 52.612 192.826 52.3527 192.969 52.0473C193.498 50.9362 194.263 49.4551 194.597 48.8927C194.678 48.7637 194.743 48.6648 194.789 48.6648C194.853 48.6648 194.886 48.7139 194.886 48.9223V51.437C194.886 52.1443 195.206 52.612 195.907 52.612C196.643 52.612 197.008 51.901 197.652 50.8065C197.683 50.7408 197.696 50.694 197.696 50.6473C197.696 50.5022 197.572 50.42 197.443 50.42C197.298 50.42 197.218 50.5662 196.74 51.096C196.643 51.1966 196.549 51.3363 196.372 51.3363C196.308 51.3363 196.26 51.2588 196.26 51.1605V48.3416C196.26 47.5845 195.924 47.279 195.492 47.279C195.142 47.279 194.853 47.4241 194.55 47.8751C194.006 48.682 193.447 49.8262 193.145 50.4028C193.11 50.4703 193.065 50.5662 193.034 50.5662C193 50.5662 192.986 50.5165 192.986 50.4028V48.3416C192.986 47.7473 192.826 47.279 192.202 47.279C191.546 47.279 191.211 47.7307 190.732 48.0681C190.428 48.296 190.158 48.4552 189.951 48.5517C189.63 47.7307 189.039 47.3145 188.544 47.327C188.047 47.3441 187.696 47.652 187.696 48.1676C187.696 48.6962 188.017 49.0644 188.447 49.2283C188.685 49.3248 188.909 49.3432 189.231 49.3432C189.327 49.3432 189.422 49.3432 189.484 49.3248C189.518 49.4853 189.503 49.7138 189.503 49.8902C189.503 50.6804 189.039 51.4671 188.177 51.4671C187.281 51.4671 186.755 50.5976 186.755 49.6001C186.755 48.8424 186.978 48.2155 187.343 47.7822C187.49 47.62 187.6 47.5217 187.6 47.3731C187.6 47.298 187.49 47.279 187.393 47.279C186.785 47.279 186.116 47.5537 185.653 47.794C185.043 48.1166 184.326 48.65 183.734 49.181C183.447 48.5352 183.095 47.9716 182.918 47.5353C182.855 47.3583 182.809 47.1529 182.681 47.1529C182.567 47.1529 182.518 47.2654 182.44 47.4874C182.153 48.3416 180.618 50.8397 180.283 51.1777C180.251 51.2238 180.205 51.2748 180.189 51.2748C180.155 51.2748 180.137 51.2588 180.137 51.1605V48.3416C180.137 47.5845 179.833 47.279 179.421 47.279C179.068 47.279 178.766 47.4241 178.478 47.8751C177.952 48.682 177.31 49.8576 177.007 50.4359C176.959 50.5354 176.911 50.5662 176.894 50.5662C176.878 50.5662 176.865 50.5022 176.865 50.4028V48.3416C176.865 47.5845 176.56 47.279 176.145 47.279C175.792 47.279 175.458 47.411 175.185 47.8751C174.516 49.02 173.398 50.7751 173.19 51.0628C173.158 51.1126 173.125 51.1451 173.094 51.1605C173.062 51.1605 173.044 51.1291 173.044 51.0492V48.3416C173.044 47.5845 172.741 47.279 172.328 47.279C171.751 47.279 171.434 47.813 171.224 48.1492C170.935 48.6163 170.553 49.2455 170.251 49.8262C170.042 50.2146 169.865 50.5662 169.801 50.5662C169.77 50.5662 169.77 50.42 169.77 50.1471V47.99C170.775 46.8605 171.399 45.4771 171.399 43.9635C171.399 43.0921 171.017 42.6114 170.427 42.6114C169.322 42.6114 168.478 44.3512 168.478 46.4106V48.0853C167.966 48.4079 167.486 48.5654 166.894 48.682C166.591 47.7822 165.951 47.3145 165.441 47.327C164.947 47.3441 164.594 47.652 164.594 48.1676C164.594 49.02 165.426 49.374 166.159 49.374H166.367C166.398 49.5362 166.398 49.7138 166.398 49.8902C166.398 50.6804 165.935 51.4671 165.074 51.4671C164.18 51.4671 163.652 50.5976 163.652 49.6001C163.652 48.8424 163.873 48.2155 164.241 47.7822C164.386 47.62 164.499 47.475 164.499 47.3731C164.499 47.298 164.386 47.279 164.289 47.279C163.682 47.279 162.342 48.1036 160.743 49.7138C160.601 48.4251 160.44 47.1677 160.44 45.9436C160.44 44.5755 160.709 43.4135 160.773 43.0785C160.805 42.8707 160.825 42.7399 160.825 42.6452C160.825 42.5155 160.757 42.4492 160.585 42.4492C159.289 42.4492 156.445 44.5276 156.445 47.6354C156.445 49.8393 157.245 50.903 158.633 52.2716C157.791 53.6408 157.115 55.2663 157.115 56.7161C157.115 57.7609 157.357 58.5523 158.122 58.5523C159.72 58.5523 160.917 55.2048 160.917 52.7233C160.917 51.9833 160.888 51.2416 160.825 50.5022C161.414 49.8706 162.325 49.02 162.547 48.9395C162.452 49.2781 162.388 49.6332 162.388 49.9683C162.388 51.3209 163.156 52.612 164.641 52.612C166.033 52.612 167.086 51.4671 167.086 49.8706C167.086 49.6646 167.069 49.4853 167.055 49.2929C167.564 49.1964 168.032 49.0644 168.478 48.795V52.0313C168.478 52.448 168.763 52.612 169.035 52.612C169.405 52.612 169.596 52.3527 169.865 51.7602C170.091 51.2748 170.696 50.1648 171.064 49.5024C171.353 48.9856 171.513 48.65 171.642 48.65C171.671 48.65 171.706 48.7287 171.706 48.9223V51.6767C171.706 52.4178 172.089 52.612 172.421 52.612C172.741 52.612 172.95 52.435 173.158 52.1443C173.989 50.9515 174.869 49.5362 175.218 48.9223C175.283 48.8122 175.362 48.7287 175.427 48.7287C175.489 48.7287 175.521 48.7637 175.521 48.9703V51.8549C175.521 52.3693 175.681 52.612 176.082 52.612C176.448 52.612 176.687 52.3527 176.829 52.0473C177.36 50.9362 178.141 49.4699 178.478 48.8927C178.556 48.7637 178.637 48.65 178.684 48.65C178.751 48.65 178.766 48.7287 178.766 48.9395V51.6767C178.766 52.4178 179.149 52.612 179.487 52.612C179.93 52.612 180.221 52.2882 180.508 51.9194C181.032 51.2238 181.8 49.989 182.264 49.1964C182.425 49.4551 182.599 49.7617 182.745 50.0991C182.361 50.5662 181.977 51.096 181.977 51.6589C181.977 52.2556 182.392 52.612 182.824 52.612C183.558 52.612 184.228 51.901 184.228 50.9208C184.228 50.5354 184.118 50.1317 183.975 49.7463C184.627 49.1005 185.411 48.4724 185.989 48.328ZM159.671 51.8383C159.8 52.6907 159.912 53.5301 159.912 54.189C159.912 55.7322 159.402 57.5365 158.523 57.5217C158.184 57.5217 157.898 57.1796 157.884 56.587C157.852 54.6566 158.762 53.0133 159.671 51.8383ZM182.998 50.7408C183.095 51.0178 183.144 51.2416 183.144 51.4671C183.144 51.7252 183.048 51.9833 182.871 51.9833C182.745 51.9833 182.617 51.8383 182.617 51.6122C182.617 51.3701 182.824 50.9835 182.998 50.7408ZM160.248 43.0613C160.248 43.1596 160.024 43.6089 159.737 44.4151C159.434 45.251 159.144 46.4414 159.144 47.8751C159.144 48.7287 159.354 49.8576 159.53 51.0001L159.019 51.695C158.203 50.694 157.692 49.5687 157.692 47.6354C157.692 44.8988 159.338 43.0003 160.183 43.0003C160.234 43.0003 160.248 43.0145 160.248 43.0613Z" fill="#D51900"/>
<path fill-rule="evenodd" clip-rule="evenodd" d="M235.275 48.28C235.275 48.1338 235.368 48.0557 235.497 48.0557C235.704 48.0557 236.024 48.28 236.199 48.7287C236.136 48.7287 236.041 48.7483 235.974 48.7483C235.594 48.7483 235.275 48.5654 235.275 48.28ZM212.17 48.28C212.17 48.1338 212.267 48.0557 212.394 48.0557C212.602 48.0557 212.908 48.28 213.08 48.7287C212.489 48.7287 212.17 48.6003 212.17 48.28ZM216.628 45.9613C216.628 43.5609 217.089 43.1921 217.235 43.1921C217.49 43.1921 217.522 43.3531 217.522 44.2736C217.522 45.2196 217.122 46.4574 216.628 47.137V45.9613ZM206.532 51.8383C206.656 52.6907 206.772 53.5301 206.772 54.189C206.772 55.7322 206.262 57.5365 205.381 57.5217C205.046 57.5217 204.758 57.1796 204.742 56.587C204.709 54.6566 205.622 53.0133 206.532 51.8383ZM229.859 50.7408C229.956 51.0178 230.002 51.2416 230.002 51.4671C230.002 51.7252 229.906 51.9833 229.73 51.9833C229.604 51.9833 229.472 51.8383 229.472 51.6122C229.472 51.3701 229.682 50.9835 229.859 50.7408ZM207.104 43.0613C207.104 43.1596 206.883 43.6089 206.593 44.4151C206.292 45.251 206.002 46.4414 206.002 47.8751C206.002 48.7287 206.215 49.8576 206.39 51.0001L205.877 51.695C205.063 50.694 204.55 49.5687 204.55 47.6354C204.55 44.8988 206.198 43.0003 207.044 43.0003C207.09 43.0003 207.104 43.0145 207.104 43.0613ZM204.44 51.1126C204.726 51.4991 205.078 51.8691 205.493 52.2716C204.646 53.6408 203.976 55.2663 203.976 56.7161C203.976 57.7609 204.217 58.5523 204.984 58.5523C206.58 58.5523 207.777 55.2048 207.777 52.7233C207.777 51.9833 207.746 51.2416 207.682 50.5022C208.274 49.8706 209.182 49.02 209.409 48.9395C209.312 49.2781 209.246 49.6332 209.246 49.9683C209.246 51.3209 210.014 52.612 211.501 52.612C212.889 52.612 213.944 51.4671 213.944 49.8706C213.944 49.6646 213.929 49.4853 213.912 49.2929C214.424 49.1964 214.89 49.0644 215.335 48.795V52.0313C215.335 52.448 215.621 52.612 215.891 52.612C216.263 52.612 216.454 52.3527 216.725 51.7602C216.947 51.2748 217.556 50.1648 217.924 49.5024C218.211 48.9856 218.371 48.65 218.502 48.65C218.531 48.65 218.561 48.7287 218.561 48.9223V51.6767C218.561 52.4178 218.944 52.612 219.28 52.612C219.601 52.612 219.806 52.435 220.018 52.1443C220.846 50.9515 221.726 49.5362 222.077 48.9223C222.141 48.8122 222.222 48.7287 222.284 48.7287C222.346 48.7287 222.381 48.7637 222.381 48.9703V51.8549C222.381 52.3693 222.539 52.612 222.938 52.612C223.306 52.612 223.546 52.3527 223.691 52.0473C224.218 50.9362 225.001 49.4699 225.335 48.8927C225.416 48.7637 225.496 48.65 225.546 48.65C225.608 48.65 225.626 48.7287 225.626 48.9395V51.6767C225.626 52.4178 226.006 52.612 226.34 52.612C226.791 52.612 227.079 52.2882 227.364 51.9194C227.891 51.2238 228.66 49.989 229.123 49.1964C229.281 49.4551 229.459 49.7617 229.604 50.0991C229.216 50.5662 228.837 51.096 228.837 51.6589C228.837 52.2556 229.247 52.612 229.682 52.612C230.416 52.612 231.086 51.901 231.086 50.9208C231.086 50.5354 230.975 50.1317 230.831 49.7463C231.485 49.1005 232.269 48.4724 232.844 48.328C232.573 48.7139 232.349 49.2621 232.349 49.9683C232.349 51.3209 233.117 52.612 234.603 52.612C236.041 52.612 237.045 51.4671 237.045 49.8706C237.045 49.4071 237.03 49.3432 237 49.1508C237.332 49.004 237.621 48.7796 237.848 48.6003C238.035 48.4552 238.182 48.3741 238.292 48.3741C238.436 48.3741 238.504 48.4872 238.504 48.6962V51.8549C238.504 52.3693 238.661 52.612 239.061 52.612C239.427 52.612 239.684 52.3527 239.828 52.0473C240.352 50.9362 241.121 49.4551 241.455 48.8927C241.535 48.7637 241.6 48.6648 241.648 48.6648C241.713 48.6648 241.744 48.7139 241.744 48.9223V51.437C241.744 52.1443 242.061 52.612 242.766 52.612C243.503 52.612 243.87 51.901 244.51 50.8065C244.54 50.7408 244.555 50.694 244.555 50.6473C244.555 50.5022 244.427 50.42 244.3 50.42C244.157 50.42 244.076 50.5662 243.598 51.096C243.503 51.1966 243.406 51.3363 243.231 51.3363C243.165 51.3363 243.12 51.2588 243.12 51.1605V48.3416C243.12 47.5845 242.78 47.279 242.349 47.279C241.999 47.279 241.713 47.4241 241.408 47.8751C240.864 48.682 240.306 49.8262 240.005 50.4028C239.97 50.4703 239.924 50.5662 239.89 50.5662C239.856 50.5662 239.844 50.5165 239.844 50.4028V48.3416C239.844 47.7473 239.684 47.279 239.061 47.279C238.404 47.279 238.07 47.7307 237.591 48.0681C237.285 48.296 237.015 48.4552 236.806 48.5517C236.489 47.7307 235.896 47.3145 235.403 47.327C234.905 47.3441 234.556 47.652 234.556 48.1676C234.556 48.6962 234.876 49.0644 235.304 49.2283C235.544 49.3248 235.768 49.3432 236.091 49.3432C236.185 49.3432 236.277 49.3432 236.346 49.3248C236.377 49.4853 236.36 49.7138 236.36 49.8902C236.36 50.6804 235.896 51.4671 235.032 51.4671C234.138 51.4671 233.613 50.5976 233.613 49.6001C233.613 48.8424 233.835 48.2155 234.201 47.7822C234.347 47.62 234.459 47.5217 234.459 47.3731C234.459 47.298 234.347 47.279 234.251 47.279C233.646 47.279 232.973 47.5537 232.51 47.794C231.902 48.1166 231.183 48.65 230.594 49.181C230.305 48.5352 229.956 47.9716 229.778 47.5353C229.712 47.3583 229.669 47.1529 229.536 47.1529C229.425 47.1529 229.377 47.2654 229.298 47.4874C229.01 48.3416 227.477 50.8397 227.142 51.1777C227.109 51.2238 227.062 51.2748 227.045 51.2748C227.015 51.2748 226.997 51.2588 226.997 51.1605V48.3416C226.997 47.5845 226.696 47.279 226.276 47.279C225.925 47.279 225.626 47.4241 225.335 47.8751C224.807 48.682 224.169 49.8576 223.866 50.4359C223.819 50.5354 223.772 50.5662 223.756 50.5662C223.738 50.5662 223.722 50.5022 223.722 50.4028V48.3416C223.722 47.5845 223.42 47.279 223.005 47.279C222.652 47.279 222.314 47.411 222.045 47.8751C221.372 49.02 220.255 50.7751 220.046 51.0628C220.018 51.1126 219.984 51.1451 219.95 51.1605C219.922 51.1605 219.903 51.1291 219.903 51.0492V48.3416C219.903 47.5845 219.601 47.279 219.183 47.279C218.607 47.279 218.289 47.813 218.08 48.1492C217.793 48.6163 217.412 49.2455 217.107 49.8262C216.901 50.2146 216.725 50.5662 216.661 50.5662C216.628 50.5662 216.628 50.42 216.628 50.1471V47.99C217.636 46.8605 218.257 45.4771 218.257 43.9635C218.257 43.0921 217.875 42.6114 217.281 42.6114C216.181 42.6114 215.335 44.3512 215.335 46.4106V48.0853C214.822 48.4079 214.343 48.5654 213.751 48.682C213.449 47.7822 212.81 47.3145 212.301 47.327C211.803 47.3441 211.453 47.652 211.453 48.1676C211.453 49.02 212.281 49.374 213.018 49.374H213.227C213.256 49.5362 213.256 49.7138 213.256 49.8902C213.256 50.6804 212.794 51.4671 211.931 51.4671C211.036 51.4671 210.511 50.5976 210.511 49.6001C210.511 48.8424 210.734 48.2155 211.099 47.7822C211.242 47.62 211.355 47.475 211.355 47.3731C211.355 47.298 211.242 47.279 211.148 47.279C210.54 47.279 209.199 48.1036 207.599 49.7138C207.459 48.4251 207.297 47.1677 207.297 45.9436C207.297 44.5755 207.569 43.4135 207.633 43.0785C207.665 42.8707 207.682 42.7399 207.682 42.6452C207.682 42.5155 207.617 42.4492 207.444 42.4492C206.15 42.4492 203.305 44.5276 203.305 47.6354C203.305 48.9057 203.577 49.8097 204.056 50.5976C203.878 50.5662 203.737 50.5662 203.606 50.5662C203.097 50.5662 202.616 50.694 202.317 50.7597V50.4359C202.317 49.7463 202.155 48.795 201.867 48.4724C201.833 48.4393 201.785 48.4251 201.741 48.4251C201.609 48.4251 201.452 48.4872 201.277 48.5849C201.083 48.682 200.891 48.7796 200.891 48.8424C200.891 48.8732 200.891 48.9057 200.939 48.9856C201.052 49.1508 201.356 49.4699 201.466 50.2288C200.922 49.6806 200.301 49.4373 199.49 49.4373C198.529 49.4373 198.24 49.8706 198.24 50.3081C198.24 51.1451 199.343 51.5636 200.735 51.5636C200.99 51.5636 201.277 51.5151 201.563 51.4494C201.563 51.7075 201.595 51.936 201.595 52.1278C201.595 52.4018 201.641 52.612 201.819 52.612C202.09 52.612 202.251 52.0621 202.282 51.2748C202.777 51.1451 203.289 51.0338 203.722 51.0338C203.929 51.0338 204.187 51.0628 204.44 51.1126ZM201.293 50.9515C201.024 50.9835 200.86 50.9835 200.575 50.9835C199.95 50.9835 199.49 50.7408 199.49 50.3898C199.49 50.1648 199.6 50.034 199.92 50.034C200.432 50.034 200.845 50.3898 201.293 50.9515Z" fill="#D51900"/>
</svg>
